<svg width="1250" height="1162" fill="none" xmlns="http://www.w3.org/2000/svg"><path d="M483.492 1161.31c-25.637 0-47.057-4.47-64.26-13.39-17.204-8.93-30.191-22.65-38.961-41.17-8.771-18.84-13.662-43.14-14.674-72.9l77.416-11.41c.337 17.2 1.855 31.08 4.554 41.66 3.036 10.58 7.084 18.19 12.144 22.82 5.397 4.63 11.806 6.94 19.227 6.94 9.445 0 15.517-3.14 18.216-9.42 3.036-6.29 4.554-12.9 4.554-19.84 0-16.53-4.048-30.42-12.144-41.66-8.096-11.57-19.059-23.145-32.889-34.717l-35.419-30.253c-15.517-12.894-28.673-27.442-39.467-43.643-10.457-16.532-15.686-36.866-15.686-61.002 0-34.055 10.289-60.009 30.865-77.863 20.577-18.185 48.575-27.277 83.994-27.277 21.926 0 39.467 3.637 52.623 10.91 13.493 7.274 23.613 16.863 30.359 28.765 7.084 11.572 11.807 23.971 14.168 37.196 2.698 12.895 4.216 25.294 4.554 37.196l-77.922 9.423c-.338-11.902-1.181-22.152-2.53-30.748-1.012-8.927-3.374-15.705-7.084-20.334-3.711-4.96-9.445-7.439-17.204-7.439-8.433 0-14.673 3.471-18.721 10.415-3.711 6.943-5.566 13.886-5.566 20.829 0 14.879 3.542 27.112 10.626 36.7 7.421 9.258 17.035 19.012 28.841 29.261l33.901 29.261c17.878 14.879 32.889 31.741 45.033 50.587 12.481 18.843 18.721 42.153 18.721 69.933 0 18.84-4.385 36.03-13.155 51.57-8.771 15.21-21.252 27.28-37.443 36.21-15.855 8.92-34.745 13.39-56.671 13.39z" fill="#000"/><path d="M632.927 1149.9V748.185h90.572v164.158l68.814-164.158h88.548l-75.898 181.516 79.44 220.199h-92.09l-59.2-177.547-9.614 15.87V1149.9h-90.572z" fill="#B1A489"/><path fill-rule="evenodd" clip-rule="evenodd" d="M617.977 274.642l-318.39 237.584v61.983L625 331.441l325.413 242.768v-61.983l-318.39-237.585-6.118-4.449-.905-.735-7.023 5.185z" fill="#B1A489"/><path fill-rule="evenodd" clip-rule="evenodd" d="M617.977 398.609l-318.39 237.584v61.983L625 455.408l325.413 242.768v-61.983l-318.39-237.585-6.118-4.449-.905-.735-7.023 5.185z" fill="#B1A489"/><path d="M1012.4 465.738l92.97 72.314v61.984l-92.97-72.314v-61.984zm-774.796 0l-113.637 77.479v56.819l113.636-77.48.001-56.818z" fill="#B1A489"/><path d="M950.413 414.085l61.987 51.653v278.926l-61.987-46.488V414.085zm-650.826 0l-61.983 51.653-.001 278.926 61.984-46.488V414.085z" fill="#B1A489"/><path d="M237.603 93.838h20.661v30.991h-20.661V93.838zm0-61.984v257.377l-41.322 30.709V31.854h41.322zm61.984 0v211.414l-41.323 30.588V31.854h41.323z" fill="#000"/><path fill-rule="evenodd" clip-rule="evenodd" d="M615.113 8.974L0 465.738v61.984L625 62.846l625 464.876v-61.984L635.001 8.974 625.275.862l-10.162 8.112z" fill="#000"/><path d="M237.603 31.854h20.661v30.992h-20.661V31.854z" fill="#000"/></svg>