<svg width="1250" height="542" fill="none" xmlns="http://www.w3.org/2000/svg"><path d="M525.823 510.67V360.598h33.106v59.473h3.33l22.009-59.473h32.922l-27.373 70.404 28.298 79.668h-34.032l-21.824-65.402h-3.33v65.402h-33.106zm148.197.37c-11.221 0-20.099-1.976-26.634-5.928-6.535-3.953-11.22-9.635-14.056-17.046-2.836-7.411-4.254-16.242-4.254-26.494v-55.767c0-10.376 1.418-19.207 4.254-26.494 2.836-7.288 7.521-12.846 14.056-16.675 6.535-3.953 15.413-5.929 26.634-5.929 11.343 0 20.283 1.976 26.818 5.929 6.658 3.829 11.406 9.387 14.241 16.675 2.836 7.287 4.254 16.118 4.254 26.494v55.767c0 10.252-1.418 19.083-4.254 26.494-2.835 7.411-7.583 13.093-14.241 17.046-6.535 3.952-15.475 5.928-26.818 5.928zm0-23.529c3.452 0 5.98-.865 7.583-2.594 1.603-1.73 2.651-3.953 3.144-6.67.493-2.718.74-5.497.74-8.337v-72.257c0-2.965-.247-5.744-.74-8.338-.493-2.717-1.541-4.94-3.144-6.669-1.603-1.73-4.131-2.594-7.583-2.594-3.206 0-5.611.864-7.213 2.594-1.603 1.729-2.651 3.952-3.145 6.669-.493 2.594-.74 5.373-.74 8.338v72.257c0 2.84.185 5.619.555 8.337.494 2.717 1.48 4.94 2.96 6.67 1.603 1.729 4.13 2.594 7.583 2.594zm78.963 21.306v-125.43h-22.564v-24.642h78.235v24.642h-22.379v125.43h-33.292zm82.363 0v-125.43h-22.565v-24.642h78.236v24.642h-22.38v125.43h-33.291zm68.86 0V358.745h67.323v22.604h-34.216v37.24h26.078v22.974h-26.078v44.836h34.586v22.418h-67.693zm74.955 32.423v-56.138h4.254c2.836-.865 5.426-2.347 7.768-4.447 2.466-2.223 4.686-5.187 6.659-8.893 1.973-3.705 3.758-8.337 5.368-13.895 1.6-5.558 2.95-12.167 4.06-19.825 1.11-7.781 2.04-16.736 2.78-26.864l4.07-52.433h69.73v126.357h16.83v56.138h-21.83l-1.66-32.423h-73.43l-1.85 32.423h-22.749zm35.509-56.138h38.29V382.275h-13.87l-1.67 32.238c-.61 10.622-1.54 19.639-2.77 27.05-1.11 7.411-2.47 13.586-4.07 18.527-1.48 4.817-3.08 8.77-4.81 11.858-1.73 3.087-3.58 5.62-5.55 7.596-1.85 1.976-3.7 3.829-5.55 5.558zm90.51 23.715l31.44-75.406-30.7-74.666h30.89l26.08 70.219h1.48v-70.219h26.26v70.219h1.66l26.08-70.219h30.89l-30.7 74.666 31.44 75.406h-29.59l-28.12-72.813h-1.66v72.813h-26.26v-72.813h-1.48l-28.12 72.813h-29.59z" fill="#B1A489"/><path d="M44.944 512.522c-11.344 0-20.345-2.032-27.004-6.096-6.535-4.188-11.158-9.976-13.871-17.366C1.356 481.548 0 472.742 0 462.642v-53.944c0-10.345 1.356-19.213 4.069-26.603 2.713-7.512 7.337-13.301 13.872-17.365 6.658-4.065 15.659-6.097 27.003-6.097 11.097 0 19.728 1.848 25.893 5.543 6.289 3.571 10.727 8.621 13.317 15.148 2.59 6.528 3.884 14.041 3.884 22.539v12.932H55.67v-14.964c0-2.956-.185-5.789-.555-8.499-.246-2.709-1.11-4.926-2.59-6.65-1.479-1.848-4.007-2.771-7.582-2.771-3.453 0-6.042.923-7.768 2.771-1.603 1.847-2.651 4.187-3.145 7.02-.37 2.709-.554 5.604-.554 8.683v70.386c0 3.325.246 6.404.74 9.237.616 2.71 1.726 4.926 3.329 6.651 1.726 1.601 4.192 2.401 7.398 2.401 3.452 0 5.918-.862 7.398-2.586 1.48-1.847 2.404-4.188 2.774-7.02.37-2.833.555-5.727.555-8.683v-15.703h32.367V468c0 8.498-1.295 16.134-3.884 22.908-2.466 6.65-6.843 11.946-13.132 15.887-6.165 3.818-14.858 5.727-26.078 5.727zm74.809-2.216v-125.07H97.189v-24.571h78.235v24.571h-22.379v125.07h-33.292zm68.861 0V360.665h50.307c9.001 0 16.399 1.725 22.194 5.173 5.796 3.326 10.111 8.252 12.947 14.779 2.836 6.405 4.254 14.225 4.254 23.463 0 11.577-1.911 20.444-5.733 26.602-3.823 6.035-9.001 10.223-15.536 12.563-6.536 2.34-13.872 3.51-22.01 3.51H221.72v63.551h-33.106zm33.106-86.644h11.098c4.069 0 7.151-.739 9.247-2.217 2.096-1.478 3.453-3.695 4.069-6.65.74-2.956 1.11-6.713 1.11-11.27 0-3.818-.308-7.143-.925-9.976-.493-2.956-1.788-5.296-3.884-7.02-2.096-1.724-5.363-2.586-9.802-2.586H221.72v39.719zm115.465 88.86c-11.221 0-20.098-1.97-26.633-5.911s-11.221-9.607-14.057-16.996c-2.836-7.39-4.254-16.196-4.254-26.418V407.59c0-10.346 1.418-19.152 4.254-26.418 2.836-7.267 7.522-12.809 14.057-16.627 6.535-3.941 15.412-5.912 26.633-5.912 11.344 0 20.283 1.971 26.818 5.912 6.658 3.818 11.406 9.36 14.242 16.627 2.836 7.266 4.254 16.072 4.254 26.418v55.607c0 10.222-1.418 19.028-4.254 26.418-2.836 7.389-7.584 13.055-14.242 16.996-6.535 3.941-15.474 5.911-26.818 5.911zm0-23.462c3.452 0 5.98-.862 7.583-2.586 1.603-1.724 2.651-3.941 3.144-6.651.493-2.709.74-5.48.74-8.313v-72.049c0-2.956-.247-5.727-.74-8.313-.493-2.71-1.541-4.927-3.144-6.651-1.603-1.724-4.131-2.586-7.583-2.586-3.206 0-5.61.862-7.213 2.586-1.603 1.724-2.651 3.941-3.145 6.651-.493 2.586-.739 5.357-.739 8.313v72.049c0 2.833.185 5.604.555 8.313.493 2.71 1.479 4.927 2.959 6.651 1.603 1.724 4.13 2.586 7.583 2.586zm65.274 21.246V360.665h26.079v85.72l38.285-85.72h21.455v149.641h-26.634v-87.198l-39.025 87.198h-20.16zm45.314-161.649c-8.755 0-15.783-2.463-21.085-7.389-5.302-4.927-7.953-12.07-7.953-21.43h17.016c0 4.557.863 7.944 2.589 10.16 1.85 2.217 4.994 3.326 9.433 3.326 4.315 0 7.398-1.109 9.247-3.326 1.85-2.34 2.775-5.727 2.775-10.16h17.015c0 9.36-2.651 16.503-7.953 21.43-5.302 4.926-12.33 7.389-21.084 7.389z" fill="#000"/><path fill-rule="evenodd" clip-rule="evenodd" d="M801.754 122.241l-142.16 106.08v27.675l145.295-108.395 145.296 108.395v-27.675l-142.16-106.08-2.732-1.987-.404-.328-3.135 2.315z" fill="#B1A489"/><path fill-rule="evenodd" clip-rule="evenodd" d="M801.754 177.592l-142.16 106.08v27.675l145.295-108.395 145.296 108.395v-27.675l-142.16-106.081-2.732-1.986-.404-.328-3.135 2.315z" fill="#B1A489"/><path d="M977.86 207.565l41.51 32.287v27.676l-41.51-32.288v-27.675zm-345.941-.001l-50.738 34.594v25.37l50.738-34.594v-25.37zm318.265-23.062l27.676 23.063v124.538l-27.675-20.756-.001-126.845zm-290.59 0l-27.675 23.062v124.539l27.675-20.756V184.502z" fill="#B1A489"/><path d="M631.919 41.513h9.225V55.35h-9.225V41.513zm0-27.675v114.917l-18.45 13.711V13.838h18.45zm27.675 0v94.395l-18.45 13.657V13.838h18.45z" fill="#000"/><path fill-rule="evenodd" clip-rule="evenodd" d="M800.475 3.622L525.83 207.565v27.675L804.889 27.675 1083.95 235.24v-27.675L809.355 3.622 805.012 0l-4.537 3.622z" fill="#000"/><path d="M631.919 13.838h9.225v13.837h-9.225V13.838z" fill="#000"/></svg>